<?xml version="1.0" encoding="utf-8"?>
<!-- Generator: Adobe Illustrator 26.3.1, SVG Export Plug-In . SVG Version: 6.00 Build 0)  -->
<svg version="1.1" id="Слой_1" xmlns="http://www.w3.org/2000/svg" xmlns:xlink="http://www.w3.org/1999/xlink" x="0px" y="0px"
	 width="500px" height="166.3px" viewBox="0 0 500 166.3" style="enable-background:new 0 0 500 166.3;" xml:space="preserve">
<style type="text/css">
	.st0{fill:#2B2523;}
	.st1{fill:#E28507;}
</style>
<g>
	<polygon class="st0" points="190.6,166.3 190.4,141.9 129.1,141.9 129.1,94.7 172.7,94.7 172.7,70.3 129.1,70.3 129.1,24.4 
		189.5,24.4 189.5,0 103.2,0 103.2,0.2 0,0.2 0,24.5 35.8,24.5 35.8,166.2 61.7,166.2 61.7,24.5 103.2,24.5 103.2,166.3 	"/>
	<path class="st0" d="M430,2.9h-23.6l-60.4,140l-27.1-36c5.5-1.2,10.9-3.3,16.1-6.5c16.9-10.2,25.4-25.2,25.4-44.4
		c0-9.8-2.3-19.1-6.9-27.5c-4.7-8.5-11.4-15.3-19.9-20.1c-9.9-5.5-25.2-8.2-46.8-8.2L190.4,0v24.4H290c19.4,0.1,28.2,3.5,32.2,6.3
		c8.3,5.9,12.4,13.7,12.4,23.9c0,13.1-5.6,21.9-17.2,26.9c-3.9,1.7-12.5,3.8-31.8,3.8h-14.9l60.6,80.8h32.2l0,0h0.1l22.2-51.4h64.7
		l22.2,51.4H500L430,2.9z M396,90.7l22.2-52.3l21.9,52.3H396z"/>
	<g>
		<path class="st1" d="M238,106.9c5.5-1.2,10.9-3.3,16.1-6.5C271,90.2,279.6,75.3,279.6,56c0-9.8-2.3-19.1-6.9-27.5
			C268,20,261.3,13.2,252.7,8.4c-9.9-5.5-25.2-8.2-46.8-8.2L171.2,0l18.3,24.4l19.6,0.1c19.4,0,28.2,3.4,32.3,6.2
			c8.3,5.9,12.4,13.7,12.4,23.9c0,13.1-5.6,21.9-17.2,26.9c-3.9,1.7-12.5,3.8-31.8,3.8h-14.9l60.6,80.8h32.2L238,106.9z"/>
	</g>
</g>
</svg>
